# xmcd CD database file
#
# Track frame offsets:
#	150
#	14622
#	34834
#	41354
#	52528
#	65910
#	77857
#	92454
#	101081
#	113806
#	126710
#	139215
#	156579
#	165979
#	178838
#	192563
#	206132
#	212964
#	224934
#	238671
#	253018
#	261480
#	276404
#	288966
#	303011
#	314033
#
# Disc length: 4343 seconds
#
# Revision: 3
# Processed by: cddbd v1.5PL3 Copyright (c) Steve Scherf et al.
# Submitted via: CDex 1.51
#
DISCID=a210f51a
DTITLE=Various Artist - The Music Of Kentucky Volume 1
DYEAR=1995
DGENRE=Country
TTITLE0=Alfred Karnes - Called To The Foreign Field
TTITLE1=B. F. Shelton - Pretty Polly
TTITLE2=W. M. Stepp - The Ways Of The World
TTITLE3=Kentucky Ramblers - The Unfortunate Brakeman
TTITLE4=Ernest Phipps And His Holiness Quartet - I Want to Go Where Jesus Is
TTITLE5=Alex Hood's Railroad Boys - L And N Rag
TTITLE6=Alfred Karnes - I Am Bound For The Promised Land
TTITLE7=W. M. Stepp - Bonaparte's Retreat
TTITLE8=Kentucky Ramblers - With My Mother Dead And Gone
TTITLE9=Ernest Phipps And His Holiness Singers - A Little Talk With Jesus
TTITLE10=Walker's Corbin Ramblers - Ned Went A-Fishin'
TTITLE11=B. F. Shelton - Darling Cora
TTITLE12=W. M. Stepp - Callahan
TTITLE13=Kentucky Ramblers - Ginseng Blues
TTITLE14=Ernest Phipps And His Holiness Singers - If The Light Has Gone Out Of Your Soul
TTITLE15=Alfred Karnes - We Shall All Be Reunited
TTITLE16=W. M. Stepp And Mae Puckett - The Old Hen She Cackled
TTITLE17=Kentucky Ramblers - Do Not Wait Till I'm Laid Beneath The Clay
TTITLE18=B. F. Shelton - Oh Molly Dear
TTITLE19=Ernest Phipps And His Holiness Singers - Don't Grieve On Me
TTITLE20=W. M. Stepp And Walter Williams - Mud Fence
TTITLE21=Alfred Karnes - Where We'll Never Grow Old
TTITLE22=Walker's Corbin Ramblers - Ruffles And Bustles
TTITLE23=Ernest Phipps And His Holiness Singers - Shine On Me
TTITLE24=W. M. Stepp - Silver Strand
TTITLE25=Kentucky Ramblers - Glory To The Lamb
EXTD=YEAR: 1995
EXTT0=
EXTT1=
EXTT2=
EXTT3=
EXTT4=
EXTT5=
EXTT6=
EXTT7=
EXTT8=
EXTT9=
EXTT10=
EXTT11=
EXTT12=
EXTT13=
EXTT14=
EXTT15=
EXTT16=
EXTT17=
EXTT18=
EXTT19=
EXTT20=
EXTT21=
EXTT22=
EXTT23=
EXTT24=
EXTT25=
PLAYORDER=
